<svg width="20" height="20" viewBox="0 0 20 20" fill="none" xmlns="http://www.w3.org/2000/svg">
<path d="M13.3334 3.33334H15C15.4421 3.33334 15.866 3.50894 16.1786 3.8215C16.4911 4.13406 16.6667 4.55798 16.6667 5.00001V16.6667C16.6667 17.1087 16.4911 17.5326 16.1786 17.8452C15.866 18.1577 15.4421 18.3333 15 18.3333H5.00004C4.55801 18.3333 4.13409 18.1577 3.82153 17.8452C3.50897 17.5326 3.33337 17.1087 3.33337 16.6667V5.00001C3.33337 4.55798 3.50897 4.13406 3.82153 3.8215C4.13409 3.50894 4.55801 3.33334 5.00004 3.33334H6.66671" stroke="#303030" stroke-width="2" stroke-linecap="round" stroke-linejoin="round"/>
<path d="M12.5 1.66666H7.49996C7.03972 1.66666 6.66663 2.03975 6.66663 2.49999V4.16666C6.66663 4.62689 7.03972 4.99999 7.49996 4.99999H12.5C12.9602 4.99999 13.3333 4.62689 13.3333 4.16666V2.49999C13.3333 2.03975 12.9602 1.66666 12.5 1.66666Z" stroke="black" stroke-width="2" stroke-linecap="round" stroke-linejoin="round"/>
</svg>
